<svg width="500" height="500" viewBox="0 0 500 500" fill="none" xmlns="http://www.w3.org/2000/svg">
<path d="M250 0C111.929 0 0 111.929 0 250C0 388.071 111.929 500 250 500C388.071 500 500 388.071 500 250C499.854 111.991 388.01 0.147531 250 0ZM355.285 257.966C353.554 261.437 350.741 264.252 347.268 265.983V266.071L204.411 337.5C195.588 341.909 184.864 338.331 180.454 329.509C179.201 327.001 178.555 324.232 178.571 321.429V178.572C178.567 168.709 186.558 160.711 196.42 160.706C199.194 160.705 201.93 161.35 204.411 162.59L347.268 234.019C356.095 238.417 359.685 249.139 355.285 257.966Z" fill="#FFA5C0"/>
</svg>
